<svg id="Layer_1" data-name="Layer 1" xmlns="http://www.w3.org/2000/svg" viewBox="0 0 254.9 242.43"><defs><style>.cls-1{fill:#2f715d;}.cls-2{fill:#fff;}</style></defs><title>logo-f0</title><path class="cls-1" d="M619.23,370.07l-8.45,20.37.9.61c1-.77,2.36-1.37,3-2.33,2.36-3.59,4.59-7.25,6.65-11,.94-1.69,1.9-2.59,4.32-1.54L620,390.09l1.1.59a8.23,8.23,0,0,0,2.37-1.48,42.72,42.72,0,0,0,3.94-6c1.89-3.72,3.29-7.65,5.37-11.27a11.69,11.69,0,0,1,4.76-4.37c3-1.47,5.67.09,5.62,3.12-.12,6.85-3.56,12.34-9.49,16.68-.45.33-1,.58-1.47.88-.07,0-.1.14-.14.21,2.41,1.82,4.83,1.83,6.8-.36a28.9,28.9,0,0,0,4-5.75c1.55-2.91,3.19-5.63,7-6.7,3.44-1,7,.18,8.13,2.63,1.4,2.92-.07,6.32-3.59,7.59a32.14,32.14,0,0,1-5.74,1.15,27.31,27.31,0,0,1-2.89.17c.59,3.45,4,5.09,7.46,3.29,2.27-1.18,3.85-3.36,5.87-5a14.69,14.69,0,0,1,2.92-1.42c-.08,1,.2,2.18-.29,3-2,3.21-4.59,5.93-8.91,6.78-5,1-7.87-.22-10.37-4.21a26.88,26.88,0,0,1-4.55,2.61,28.29,28.29,0,0,1-5.34.8,29.21,29.21,0,0,1-.06,5.08,16.68,16.68,0,0,1-1.78,5.17,3.88,3.88,0,0,1-4.95,1.86,5.88,5.88,0,0,1-3-3.68c-.36-1.7.34-3.59.62-5.39.13-.82.33-1.63.57-2.77-3.06.91-5.49.85-7.1-1.7a10.42,10.42,0,0,1-2.76,1.66c-1.52.34-3.55.84-4.64.25a4.2,4.2,0,0,1-1.68-3.73,33.83,33.83,0,0,1,2.45-7.21c1.56-3.75,3.32-7.44,4.91-11.19C615.82,369.6,617,369.08,619.23,370.07Zm19.77.29c-5.21,3.63-5.71,9.37-8.7,14.65C635.8,382.49,640.36,374.9,639,370.36ZM645.8,383l.87,1.08a45.37,45.37,0,0,0,6.19-1c2-.6,2.72-2.43,1.56-3.77a4.8,4.8,0,0,0-4.21-.7C648.43,379.66,647.24,381.49,645.8,383Zm-18.92,19a7.6,7.6,0,0,0,1.07-9.68C625.7,398.86,625.55,400,626.88,402Z" transform="translate(-436.42 -163)"/><path class="cls-1" d="M531.55,391.29a23.86,23.86,0,0,0,3.17-2.31c1.43-1.44,2.59-3.08,4-4.54.35-.37,1.48-.69,1.71-.5.48.38,1,1.31.81,1.68-2,3.4-4.06,7-8.56,8.2-1.55.42-3.55-.45-5.29-1-6.6,1.83-7.72,1.63-11-2.31-7.88,5.2-13,5-17.07-1-1.39,1.21-2.68,2.46-4.12,3.56a5.47,5.47,0,0,1-6.29.65c-2.3-1.27-2.05-3.2-1.28-5.12,1-2.45,2.1-4.87,3-7.34a6.81,6.81,0,0,0,.1-2.17c-.92.08-2.18-.14-2.7.31a20.92,20.92,0,0,0-4.27,4.54,74.77,74.77,0,0,0-4.08,8.1c-.75,1.6-1.88,2.12-4.18,1.26,1.06-2.48,2.16-4.93,3.17-7.41s1.86-4.79,2.92-7.54c-3.77,0-5.71,1.47-6.9,3.51-1.89,3.24-3.49,6.61-5.16,9.95-1.1,2.19-1.18,2.25-4.38,1.48.77-1.94,1.48-3.89,2.31-5.79,1.52-3.49,3.14-6.94,4.65-10.44.61-1.41,1.51-1.87,3.2-1.42a6.19,6.19,0,0,0,2.79,0c3.1-.69,4.08-.5,6.26,1.46a36.15,36.15,0,0,1,5.62-1.41c3.85-.36,5.75,1.81,4.56,5.07s-2.6,6.51-3.92,9.77l.61.66c.92-.36,2.17-.51,2.7-1.13a58.62,58.62,0,0,0,5.9-7.72c1.64-2.75,3.08-5.47,6.69-6.6s7.26,0,8.42,2.54c1.4,3-.25,6.59-3.91,7.7a69.77,69.77,0,0,1-8.1,1.48c0,3,3.46,4.61,7.2,3.15,3.47-1.36,5.32-4.05,6.89-6.91.6-1.09,1-2.28,1.63-3.35,2.77-4.72,7.17-6,12.71-3.61,1-2.44,2-4.87,3-7.28.87-2,1.12-2.09,4-1.22l-8.15,22.32Zm-12.33-4.22c.87,1.47,1.4,3.34,2.15,3.42,1.39.13,3.54-.42,4.25-1.34A21.14,21.14,0,0,0,529,382.4c.31-1-.57-3.22-1.4-3.44-1.27-.34-3.63.16-4.35,1C521.59,382.1,520.57,384.63,519.23,387.07Zm-16.26-4,.69.93a42,42,0,0,0,6.13-.86c2.05-.59,2.94-2.17,1.79-3.93s-3.22-1.54-4.6-.52C505.38,379.86,504.29,381.58,503,383.07Z" transform="translate(-436.42 -163)"/><path class="cls-1" d="M553.92,388.52c3.31,1.68,5.44,1.53,7.35-.69,1.41-1.64,2.27-3.63,3.59-5.34,1.69-2.17,3.17-4.73,5.5-6.2,4.08-2.57,8.82-.24,9,4.2a57.38,57.38,0,0,1-.64,7.54c3.58-2.21,5.08-5.39,6.48-8.57.21-.48-1-1.32-1-2-.14-1.29-.39-2.85.28-3.84a4.06,4.06,0,0,1,3.57-.83c1.08.58,1.57,2.09,2.19,3.26s.72,2.44,1.54,3.32c1.81,1.92,2.44,3.9,1.54,6.28-.61,1.61-1.11,3.25-1.65,4.87l1,.52c1.61-1.75,3.14-3.57,4.87-5.22.79-.76,2.48-1.88,2.93-1.64,1.92,1,.35,2.3-.38,3.28a43.75,43.75,0,0,1-4.33,4.95,4.93,4.93,0,0,1-5.65,1.12c-2.11-1-2-2.79-1.41-4.59a20.77,20.77,0,0,0,1.29-4,16.41,16.41,0,0,0-.38-3.81l-1.08,0c-1.31,2-2.6,4-3.94,6a8,8,0,0,1-7.13,4,3.28,3.28,0,0,0-1.77.68c-4.91,3.59-8.4,3.22-11.7-.92l-9.44,2.65a34.8,34.8,0,0,1-.07,6.19c-.66,4-3.37,6.17-6.32,5.63s-4.24-3.19-2.94-7.16c2.62-8,5.47-15.92,8.45-23.81a18.14,18.14,0,0,1,3.59-5.34,5.08,5.08,0,0,1,6-1.59c2.45,1.05,2.64,3.06,2.19,5.16A22.86,22.86,0,0,1,553.92,388.52Zm-.81-3.86c5.06-2,10-10.56,8.22-14.26C558.28,371.67,554.89,377.56,553.12,384.66Zm19.34-5.92c-3.37,1.69-6.35,7.49-5.35,10.35.24.68.93,1.62,1.56,1.72a8.32,8.32,0,0,0,3.58-.38c.42-.13.93-1.31.71-1.61C570.5,385.59,571.31,382.23,572.45,378.75Zm-22.11,13.61c-.69,3.13-2.76,6.13-1.53,10.1C552.4,399.06,551.18,395.68,550.35,392.35Zm24.34-6.87,1,.08.53-4.82-1-.08Z" transform="translate(-436.42 -163)"/><path class="cls-1" d="M666.24,339.83c0-4.49.07-8.22,0-11.94-.06-2.1.56-3.2,3.31-3.15,4.23.08,5,.32,5,3.16,0,8.17-.1,16.35-.24,24.52,0,.66-.7,1.87-1,1.85a5.22,5.22,0,0,1-2.84-.94c-4.79-4-9.47-8.16-14.18-12.25a6.69,6.69,0,0,0-2.84-1.57c0,3.87.07,7.73,0,11.59,0,1-.54,2.78-1.07,2.85a24.58,24.58,0,0,1-6.09-.2c-.27,0-.5-1.23-.51-1.89-.12-8.43-.22-16.86-.23-25.29,0-.64.73-1.85,1-1.83a5.46,5.46,0,0,1,2.84,1c4.84,4,9.58,8.06,14.36,12.1C664.31,338.34,665,338.82,666.24,339.83Zm-16.44-9.45-.9.36c0,1.53,0,3.05,0,4.58,0,4.26.05,8.52-.07,12.77-.05,1.81.71,3.69,2.23,4.33.09,0,.3-.14.45-.21-3.38-6.52-.87-13.31-1.77-19.95l.76-.23,19.35,16.33.73-.4V328.53h-.81v18.55Z" transform="translate(-436.42 -163)"/><path class="cls-1" d="M507.7,338.75c0,4.65,0,8.53,0,12.41,0,1.67.16,3.07-2.61,3.09-4.89,0-5,.15-5.05-2.72q-.22-12.27-.24-24.54a7.11,7.11,0,0,1,.87-2.3,9.2,9.2,0,0,1,2.83,1c5.49,4.51,10.88,9.1,16.66,14a16.82,16.82,0,0,0,.36-2.23c0-2.87,0-5.75,0-8.62,0-4,.19-4,4.69-4,3.06,0,3.69,1.39,3.66,3.6-.09,7.49-.11,15-.28,22.46a14.53,14.53,0,0,1-1,3.55,18.94,18.94,0,0,1-3.93-1.94c-4.52-3.78-8.9-7.69-13.34-11.55C509.76,340.33,509.1,339.86,507.7,338.75Zm16.53,7.68-.76.19L504,330.29l-.88.28c0,1.51,0,3,0,4.53,0,4.44.06,8.87,0,13.3,0,1,1.12,3.62,2,4a1.66,1.66,0,0,0,.66,0c-3.28-6.63-.87-13.43-1.71-20.07l.7-.19,19.37,16.31.82-.44V328.5h-.77Z" transform="translate(-436.42 -163)"/><path class="cls-1" d="M448.13,324.07c2.7.73,5.46,1.34,8.08,2.24,2.34.8,2.65,2.42,1.38,4.25-1.14,1.66-2.36,3.08-5,1.74a11.51,11.51,0,0,0-4.1-1.4c-1.07-.09-2.24.63-3.36,1,.52.94.76,2.24,1.61,2.75,2.85,1.7,6.17,2.84,8.84,4.71,5,3.51,4.83,9.11.1,12.87-3.28,2.61-7.17,2.77-11.14,2.24a24.32,24.32,0,0,1-5.82-1.83c-2.44-1-2.15-2.71-1-4.39s2.08-2.9,4.64-1.51a14.76,14.76,0,0,0,5.29,1.33,2,2,0,0,0,1.71-3.57,5.65,5.65,0,0,0-2-1.53c-1.33-.74-2.73-1.41-4.12-2.07-5.49-2.62-7.68-5.68-6.59-9.38S441.48,323.94,448.13,324.07Zm-.36,15.51a49.32,49.32,0,0,1-5.28-3.87,4.31,4.31,0,0,1,1.94-7.31c3.11-.87,6.18-.9,9,.85a4.7,4.7,0,0,0,1.35.33c-3.25-2-6.48-4.08-10.65-2.07-2.55,1.23-4.09,3-3.83,5.62C440.73,337.1,444.66,338,447.78,339.57ZM451.3,341c.87,1.4,2.81,3.19,3,5.12.4,3.84-5.24,6.29-9.9,4.63-1.23-.44-2.48-.82-3.72-1.23a11.11,11.11,0,0,0,11.42,1.33c2.75-1.1,3.06-3.31,3.19-5.39C455.47,342.67,452.82,341.74,451.3,341Z" transform="translate(-436.42 -163)"/><path class="cls-1" d="M590.59,339.54C593,335,595.15,331,597.23,327c1-2,6.82-3.38,8.6-1.93a1.59,1.59,0,0,1,.34,1.59c-4.09,7.9-8.25,15.78-12.41,23.65a14.31,14.31,0,0,1-1.38,2.29,18.61,18.61,0,0,1-1.9,1.82c-.65-.56-1.54-1-1.92-1.7-2.77-5-5.45-10-8.13-15-1.8-3.38-3.56-6.77-5.3-10.17-1.14-2.22-.76-2.82,2-2.85,5.84-.06,5.47-.28,7.35,3.77C586.15,332.08,588.33,335.49,590.59,339.54ZM603.42,327c-1.52.91-3.4,1.42-4,2.5-2.61,4.64-4.82,9.44-7.21,14.17-.48.95-1.11,1.84-2,3.31-3.33-6.47-6.32-12.31-9.37-18.11-.23-.44-1-.67-1.77-1.2l11.17,20.92a20.07,20.07,0,0,0,1.84-2.34c2.53-4.79,5-9.62,7.56-14.38.52-1,1.64-2.37,2.47-2.37C604.59,329.55,603.58,328.39,603.42,327Z" transform="translate(-436.42 -163)"/><path class="cls-1" d="M462,354.09c1.31-2.84,2.19-5,3.29-7.1q5.41-10.27,11-20.48a10.5,10.5,0,0,1,2.26-2.13c.74.64,1.76,1.16,2.17,1.94,3.44,6.44,6.76,12.93,10.13,19.4,1,1.89,2.06,3.75,3.06,5.64.9,1.7.79,2.76-1.88,2.8-3.07,0-6,.2-7-3.2-.15-.47-1.36-.91-2.12-1-2.07-.13-4.16.08-6.23-.07-2.77-.2-5.05,0-6,2.84a2.71,2.71,0,0,1-2,1.27C466.78,354.2,464.82,354.09,462,354.09Zm20.41-16.75-3.54-7.57-.84.09-1,3.54-4.12,6.7-6,10.48.76.35c.29-.32.8-.62.84-1,.28-2.58,2.14-2.92,4.61-2.81a81.25,81.25,0,0,0,9.2,0c3.21-.22,5.59.42,6.62,3.34a4.53,4.53,0,0,0,1,.13l-7.56-13.43Z" transform="translate(-436.42 -163)"/><path class="cls-1" d="M608,353.64c.75-1.78,1.34-3.57,2.22-5.25q5.87-11.23,11.92-22.4c.37-.68,1.56-1.64,2-1.51a4,4,0,0,1,2.2,1.85c3.27,6.13,6.41,12.31,9.62,18.46,1.15,2.21,2.42,4.37,3.58,6.58.91,1.73.69,2.74-1.94,2.78-3.1,0-6,.16-7-3.24-.14-.45-1.37-.89-2.12-.92-3-.1-5.94-.11-8.9,0a3.23,3.23,0,0,0-2.13.94C614.74,354.45,613.76,354.8,608,353.64Zm20.08-16.31-3.52-7.54-.75,0-1.14,3.58L620.37,337l-8.09,14a6.31,6.31,0,0,0,1.29-.3c.22-.16.51-.38.54-.59.33-2.82,2.45-3.11,5.09-3a63.64,63.64,0,0,0,8,0c3.56-.27,6.44.22,7.58,3.67a5.61,5.61,0,0,0,.92,0L628,337.21Z" transform="translate(-436.42 -163)"/><path class="cls-1" d="M552.21,337.5c0,2.86,0,5.73,0,8.59,0,4.59-2,7.26-7.2,8.07-2.63.41-5.59-.22-8.24-.88-.92-.23-2.19-2.54-1.89-2.86,1.27-1.33,2.06-3.63,4.87-3.07,4.07.8,4.34.63,4.35-3.09,0-5.56.09-11.11,0-16.67-.06-2.35,1.1-3.11,3.56-3,2.26.14,4.93-.55,4.62,3-.29,3.28-.06,6.59-.06,9.89Zm-3-9.18-1-.08a9.12,9.12,0,0,0-.38,1.89c0,4.76.19,9.51.17,14.26,0,5.66-2.48,7.34-8.61,6,3.26,1.94,8.25,1,8.6-2C548.68,341.73,548.8,335,549.18,328.32Z" transform="translate(-436.42 -163)"/><path class="cls-1" d="M691.27,339.64c0,4-.07,8,0,12,0,1.81-.48,2.66-2.77,2.74-5.17.18-5.29.17-5.29-4.41,0-7.39.11-14.77-.06-22.16-.06-2.73,1.38-3.21,4-3.13,3.84.11,4.07.2,4.08,3.24C691.28,331.82,691.27,335.73,691.27,339.64ZM687,350.33l.55.1V328.62H687Z" transform="translate(-436.42 -163)"/><path class="cls-1" d="M561.25,339.55c0-4,.12-8,0-12-.09-2.21.89-3,3.27-2.86,2.15.15,4.84-.61,4.82,2.67q-.07,12.25,0,24.5c0,1.81-.86,2.41-2.82,2.5-5.16.23-5.28.18-5.28-4.39q0-5.21,0-10.43Zm3.64,10.89.35,0v-22h-.35Z" transform="translate(-436.42 -163)"/><path class="cls-1" d="M629,372.5c-1.83,1-2.79,2-3.71,1.93a2.78,2.78,0,0,1-2-1.91c0-.67,1.24-1.87,2-1.91C626.23,370.57,627.2,371.51,629,372.5Z" transform="translate(-436.42 -163)"/><path class="cls-2" d="M649.8,330.91l20,16.7V329.06h.81v19.43l-.73.4L650.5,332.56l-.76.23c.9,6.63-1.61,13.43,1.78,19.95-.15.08-.36.25-.46.21-1.52-.64-2.28-2.53-2.23-4.33.13-4.26.06-8.52.07-12.77,0-1.53,0-3.05,0-4.58Z" transform="translate(-436.42 -163)"/><path class="cls-2" d="M524.23,346.43V328.49H525v19.43l-.82.44L504.8,332.06l-.7.19c.85,6.64-1.57,13.43,1.71,20.07a1.66,1.66,0,0,1-.66,0c-.87-.34-2-3-2-4,0-4.43,0-8.87,0-13.3,0-1.51,0-3,0-4.53l.88-.28,19.44,16.33Z" transform="translate(-436.42 -163)"/><path class="cls-2" d="M447.78,339.57c-3.12-1.58-7-2.47-7.44-6.45-.27-2.66,1.28-4.39,3.83-5.62,4.17-2,7.4.05,10.65,2.07a4.7,4.7,0,0,1-1.35-.33c-2.84-1.75-5.92-1.72-9-.85a4.31,4.31,0,0,0-1.94,7.31A49.32,49.32,0,0,0,447.78,339.57Z" transform="translate(-436.42 -163)"/><path class="cls-2" d="M451.3,341c1.52.78,4.17,1.71,4,4.46-.13,2.08-.44,4.29-3.19,5.39a11.11,11.11,0,0,1-11.42-1.33c1.24.41,2.49.8,3.72,1.23,4.65,1.66,10.3-.79,9.9-4.63C454.1,344.15,452.17,342.36,451.3,341Z" transform="translate(-436.42 -163)"/><path class="cls-2" d="M603.42,327c.16,1.36,1.17,2.52-1.34,2.5-.83,0-1.95,1.41-2.47,2.37-2.6,4.76-5,9.59-7.56,14.38a20.07,20.07,0,0,1-1.84,2.34L579,327.7c.81.54,1.54.77,1.77,1.2,3.05,5.81,6,11.64,9.37,18.11.9-1.47,1.54-2.36,2-3.31,2.39-4.73,4.61-9.54,7.21-14.17C600,328.46,601.91,327.94,603.42,327Z" transform="translate(-436.42 -163)"/><path class="cls-1" d="M473.83,340.78l3.67-6,.73-2,1.15.81,2.94,4.67-.07-.1,3.71,8.13H471.7Zm7.5,3.2-2.49-5-2.54,4.69Z" transform="translate(-436.42 -163)"/><path class="cls-2" d="M472.9,340.1l-2.39,6.23h16l-4.16-9.12,7.56,13.43a4.53,4.53,0,0,1-1-.13c-1-2.92-3.41-3.56-6.62-3.34a81.25,81.25,0,0,1-9.2,0c-2.47-.11-4.33.23-4.61,2.81,0,.34-.55.64-.84,1l-.76-.35Z" transform="translate(-436.42 -163)"/><path class="cls-2" d="M482.43,337.33l-3.3-5.24-1.29-.91-.82,2.21,1-3.54.84-.09Z" transform="translate(-436.42 -163)"/><path class="cls-1" d="M620.92,337.14l2-3.5,1.62-1.6,3,5.46-.07-.12,3.59,8.95H617.16l1.39-3.37Zm5.66,6.61-2.4-5.49-2.4,5.18Z" transform="translate(-436.42 -163)"/><path class="cls-2" d="M620.37,337l-2.78,5.94L616,346.34h16.27l-4.2-9.12,7.65,13.58a5.61,5.61,0,0,1-.92,0c-1.14-3.45-4-3.94-7.58-3.67a63.64,63.64,0,0,1-8,0c-2.64-.13-4.76.15-5.09,3,0,.21-.32.43-.54.59a6.31,6.31,0,0,1-1.29.3Z" transform="translate(-436.42 -163)"/><path class="cls-2" d="M628.12,337.33l-3.52-5.56-1.89,1.63,1.14-3.58.75,0Z" transform="translate(-436.42 -163)"/><path class="cls-2" d="M549.18,328.32c-.38,6.69-.5,13.4-1.27,20.06-.35,3-5.34,4-8.6,2,6.13,1.31,8.59-.36,8.61-6,0-4.75-.14-9.51-.17-14.26a9.12,9.12,0,0,1,.38-1.89Z" transform="translate(-436.42 -163)"/><path class="cls-2" d="M687,350.33v-21.7h.55v21.81Z" transform="translate(-436.42 -163)"/><path class="cls-2" d="M564.88,350.44V328.51h.35v22Z" transform="translate(-436.42 -163)"/><path class="cls-1" d="M563.55,315.7c-2.33-1.73-4.51-2.9-6.16-4.63-9.44-9.91-18.76-20-28.12-30Q512.65,263.33,496,245.55c-5.08-5.45-5.1-8.19,0-13.6q30.47-32.53,61-65c4.94-5.25,8-5.26,12.86,0q30.37,32.41,60.69,64.87c5,5.34,5,8.46.12,13.73q-30.36,32.64-60.81,65.19C568.14,312.53,565.92,313.84,563.55,315.7Zm6.74-79.89-.66-.95a7.28,7.28,0,0,0,.65-2c.13-6.25.15-12.49.29-18.74.08-3.54-1.12-6.31-3.29-6.44a66.07,66.07,0,0,0-7.49.28c-2.07.12-2.82,1.52-2.84,3.53,0,2.9-.1,5.79,0,8.69,0,.53.75,1,1,1.32-.22,1.41-.53,2.76-.63,4.13a27,27,0,0,0,0,4.37c.26,3-1.61,3.43-3.66,3.53-2.24.11-4.48.07-6.72,0a40,40,0,0,1-6.58-.23c-2-.36-3.82-.46-4.61,1.77-1.18,3.35.19,10.33,1.9,10.91a2.75,2.75,0,0,0,.86.12c3.93,0,7.87.06,11.8,0,2.43,0,4.86-.28,6.84-.41a55.82,55.82,0,0,1,.59,6.2c-.1,5.06-.38,10.11-.58,15.17-.09,2.32,1,4,3.07,4.19a22.92,22.92,0,0,0,7.2-.54,4.08,4.08,0,0,0,2.54-2.82c.29-4.25.12-8.54.12-12.84l-.89.16c.33-1.85.77-3.59.92-5.36s0-3.82,0-5.52c.85.37,2,1.26,3.22,1.34,3.44.23,6.9.14,10.36.15,8,0,8.24-.28,7.71-8.75-.16-2.58-1.4-4-3.88-4-2.8,0-5.66-.4-8.37.13-1.53.3-4.07-1.13-4.67,1.85l-1.71-1.37Z" transform="translate(-436.42 -163)"/></svg>