<svg id="Layer_1" data-name="Layer 1" xmlns="http://www.w3.org/2000/svg" viewBox="0 0 161.32 140.67"><defs><style>.cls-1{fill:#2f715d;}.cls-2{fill:#fff;}</style></defs><title>frame1</title><path class="cls-1" d="M518.37,386.64a30.91,30.91,0,0,1-4-2.45c-6.08-5.25-12.09-10.57-18.12-15.87q-10.7-9.41-21.4-18.83c-3.27-2.89-3.29-4.34,0-7.2q19.63-17.23,39.29-34.43c3.18-2.78,5.13-2.79,8.28,0Q542,325,561.53,342.2c3.21,2.83,3.23,4.48.08,7.27Q542,366.75,522.43,384A35.5,35.5,0,0,1,518.37,386.64Zm4.34-42.31-.43-.5a3.39,3.39,0,0,0,.42-1.06c.08-3.31.1-6.62.18-9.93.05-1.87-.72-3.34-2.12-3.41-1.6-.08-3.22.07-4.83.15a1.7,1.7,0,0,0-1.83,1.87c0,1.53-.07,3.07,0,4.6,0,.28.48.55.63.7-.14.75-.34,1.46-.4,2.19a11.78,11.78,0,0,0,0,2.31c.17,1.59-1,1.81-2.36,1.87s-2.89,0-4.33,0a31.33,31.33,0,0,1-4.24-.12c-1.29-.19-2.46-.24-3,.94-.76,1.77.13,5.47,1.22,5.78a2.13,2.13,0,0,0,.56.06c2.54,0,5.07,0,7.61,0,1.57,0,3.13-.15,4.41-.22a24.47,24.47,0,0,1,.38,3.28c-.06,2.68-.25,5.35-.37,8a2,2,0,0,0,2,2.22,17.88,17.88,0,0,0,4.64-.29c.66-.13,1.59-.94,1.63-1.49.19-2.25.08-4.52.08-6.8l-.58.09a26.34,26.34,0,0,0,.59-2.84,28.44,28.44,0,0,0,0-2.92,7.28,7.28,0,0,0,2.08.71c2.22.12,4.45.08,6.67.08,5.15,0,5.31-.15,5-4.64-.1-1.36-.9-2.12-2.5-2.13a33.33,33.33,0,0,0-5.39.07c-1,.16-2.62-.6-3,1l-1.1-.73Z" transform="translate(-437.68 -305.76)"/><path class="cls-1" d="M553.38,424.05,548,436.95l.57.38a7.82,7.82,0,0,0,1.89-1.48c1.49-2.27,2.91-4.59,4.21-7,.59-1.07,1.2-1.64,2.73-1l-3.6,8.79.69.37a5.21,5.21,0,0,0,1.5-.93,27,27,0,0,0,2.49-3.83c1.2-2.35,2.08-4.84,3.4-7.13a7.4,7.4,0,0,1,3-2.76c1.89-.93,3.59.06,3.56,2-.07,4.33-2.25,7.81-6,10.56-.29.21-.62.37-.93.56,0,0-.06.09-.09.13,1.52,1.15,3.06,1.16,4.3-.23a18.29,18.29,0,0,0,2.51-3.64c1-1.84,2-3.56,4.4-4.24,2.18-.61,4.4.11,5.15,1.67a3.5,3.5,0,0,1-2.27,4.81,20.34,20.34,0,0,1-3.63.73,17.29,17.29,0,0,1-1.83.11c.38,2.18,2.52,3.22,4.72,2.08,1.44-.75,2.44-2.13,3.71-3.15a9.3,9.3,0,0,1,1.85-.9c0,.64.13,1.38-.19,1.89a8.41,8.41,0,0,1-5.64,4.29c-3.15.62-5-.14-6.56-2.67a17,17,0,0,1-2.88,1.65,17.91,17.91,0,0,1-3.38.5,18.49,18.49,0,0,1,0,3.21,10.55,10.55,0,0,1-1.13,3.27,2.46,2.46,0,0,1-3.13,1.18,3.72,3.72,0,0,1-1.87-2.33,10.07,10.07,0,0,1,.39-3.41c.08-.52.21-1,.36-1.76-1.94.58-3.47.54-4.49-1.08a6.6,6.6,0,0,1-1.74,1.05c-1,.22-2.25.53-2.94.16a2.66,2.66,0,0,1-1.06-2.36,21.41,21.41,0,0,1,1.55-4.56c1-2.38,2.1-4.71,3.11-7.08C551.22,423.76,552,423.43,553.38,424.05Zm12.51.18c-3.3,2.3-3.61,5.93-5.5,9.27C563.87,431.91,566.75,427.11,565.89,424.24Zm4.3,8,.55.68a28.72,28.72,0,0,0,3.92-.65c1.26-.38,1.72-1.54,1-2.39a3,3,0,0,0-2.66-.44A14.54,14.54,0,0,0,570.2,432.24Zm-12,12a4.81,4.81,0,0,0,.67-6.12C557.47,442.27,557.38,443,558.22,444.27Z" transform="translate(-437.68 -305.76)"/><path class="cls-1" d="M497.89,437.48a15.1,15.1,0,0,0,2-1.46c.9-.91,1.64-1.95,2.52-2.88.22-.23.94-.43,1.08-.32.31.24.65.83.51,1.06-1.27,2.15-2.57,4.42-5.41,5.19-1,.27-2.25-.29-3.35-.65-4.18,1.16-4.89,1-7-1.46-5,3.29-8.2,3.13-10.8-.65-.88.77-1.7,1.56-2.61,2.25a3.46,3.46,0,0,1-4,.41c-1.46-.8-1.3-2-.81-3.24.63-1.55,1.33-3.08,1.93-4.65a4.31,4.31,0,0,0,.07-1.37c-.58.05-1.38-.09-1.71.2a13.24,13.24,0,0,0-2.7,2.87,47.32,47.32,0,0,0-2.58,5.13c-.47,1-1.19,1.34-2.64.8.67-1.57,1.37-3.12,2-4.69s1.18-3,1.85-4.77c-2.38,0-3.61.93-4.37,2.22-1.2,2.05-2.21,4.19-3.27,6.3-.69,1.38-.75,1.42-2.77.94.49-1.23.94-2.46,1.46-3.67,1-2.21,2-4.39,2.94-6.6a1.46,1.46,0,0,1,2-.9,3.92,3.92,0,0,0,1.77,0c2-.44,2.58-.32,4,.92a22.88,22.88,0,0,1,3.55-.89c2.43-.23,3.64,1.14,2.89,3.21s-1.65,4.12-2.48,6.18l.38.42c.58-.23,1.38-.32,1.71-.71a37.1,37.1,0,0,0,3.74-4.88c1-1.74,2-3.46,4.23-4.18s4.59,0,5.33,1.6a3.57,3.57,0,0,1-2.47,4.87,44.16,44.16,0,0,1-5.12.94c0,1.9,2.19,2.92,4.56,2a8.66,8.66,0,0,0,4.36-4.37c.38-.69.63-1.44,1-2.12,1.75-3,4.54-3.81,8-2.29.64-1.55,1.26-3.08,1.92-4.61.55-1.28.71-1.32,2.52-.77L497.07,437Zm-7.8-2.67c.55.93.89,2.12,1.36,2.16a3.59,3.59,0,0,0,2.69-.85,13.38,13.38,0,0,0,2.16-4.27c.2-.65-.36-2-.89-2.18a3.36,3.36,0,0,0-2.75.66A28.73,28.73,0,0,0,490.09,434.81Zm-10.29-2.53.44.59a26.55,26.55,0,0,0,3.88-.55c1.3-.37,1.86-1.37,1.14-2.49a2,2,0,0,0-2.91-.33A17.75,17.75,0,0,0,479.8,432.28Z" transform="translate(-437.68 -305.76)"/><path class="cls-1" d="M512,435.73c2.09,1.06,3.44,1,4.65-.44.89-1,1.44-2.3,2.27-3.38,1.07-1.38,2-3,3.48-3.93,2.58-1.63,5.58-.15,5.71,2.66a36.31,36.31,0,0,1-.41,4.77C530,434,531,432,531.86,430c.13-.3-.61-.83-.65-1.28a3.86,3.86,0,0,1,.18-2.43,2.57,2.57,0,0,1,2.26-.53c.69.37,1,1.32,1.39,2.06a9.1,9.1,0,0,0,1,2.1,3.54,3.54,0,0,1,1,4c-.38,1-.7,2.05-1,3.08l.6.33c1-1.11,2-2.26,3.08-3.31.5-.48,1.57-1.19,1.85-1,1.21.66.22,1.46-.24,2.07a27.69,27.69,0,0,1-2.74,3.13,3.12,3.12,0,0,1-3.58.71c-1.34-.61-1.28-1.77-.89-2.9a13.15,13.15,0,0,0,.82-2.53,10.39,10.39,0,0,0-.24-2.41h-.69c-.83,1.27-1.65,2.54-2.49,3.81a5.06,5.06,0,0,1-4.51,2.51,2.08,2.08,0,0,0-1.12.43c-3.11,2.27-5.32,2-7.41-.58l-6,1.68a22,22,0,0,1,0,3.92c-.42,2.51-2.13,3.9-4,3.56s-2.69-2-1.86-4.53c1.66-5.06,3.46-10.08,5.35-15.07a11.48,11.48,0,0,1,2.27-3.38,3.22,3.22,0,0,1,3.82-1c1.55.67,1.67,1.93,1.39,3.27A14.47,14.47,0,0,1,512,435.73Zm-.51-2.44c3.2-1.25,6.33-6.68,5.2-9C514.81,425.06,512.66,428.79,511.54,433.29Zm12.24-3.75c-2.13,1.07-4,4.74-3.38,6.55.15.43.59,1,1,1.09a5.26,5.26,0,0,0,2.26-.24c.27-.08.59-.83.45-1C522.54,433.87,523.05,431.75,523.77,429.54Zm-14,8.61c-.44,2-1.75,3.88-1,6.39C511.08,442.4,510.31,440.26,509.78,438.15Zm15.4-4.35.64,0,.33-3-.66-.05Z" transform="translate(-437.68 -305.76)"/><path class="cls-1" d="M583.13,404.91c0-2.84,0-5.2,0-7.56,0-1.33.36-2,2.09-2,2.67.05,3.17.2,3.17,2,0,5.17-.06,10.35-.15,15.52,0,.42-.44,1.19-.63,1.17a3.31,3.31,0,0,1-1.8-.59c-3-2.55-6-5.16-9-7.75a4.23,4.23,0,0,0-1.8-1c0,2.45,0,4.89,0,7.34,0,.64-.34,1.76-.67,1.8a15.56,15.56,0,0,1-3.85-.12c-.17,0-.32-.78-.32-1.2-.08-5.34-.14-10.67-.15-16,0-.41.46-1.17.64-1.16a3.46,3.46,0,0,1,1.8.62c3.06,2.52,6.06,5.1,9.09,7.66C581.91,404,582.32,404.27,583.13,404.91Zm-10.4-6-.57.23c0,1,0,1.93,0,2.9,0,2.7,0,5.39,0,8.08a2.81,2.81,0,0,0,1.41,2.74c.06,0,.19-.09.29-.13-2.14-4.12-.55-8.43-1.12-12.63l.48-.15,12.25,10.34.46-.25v-12.3h-.52v11.74Z" transform="translate(-437.68 -305.76)"/><path class="cls-1" d="M482.79,404.23c0,2.94,0,5.4,0,7.85,0,1.06.1,1.94-1.65,2-3.09,0-3.17.1-3.2-1.72q-.14-7.77-.15-15.53a4.5,4.5,0,0,1,.55-1.46,5.82,5.82,0,0,1,1.79.61c3.47,2.85,6.89,5.76,10.55,8.84a10.64,10.64,0,0,0,.23-1.41c0-1.82,0-3.64,0-5.46,0-2.51.12-2.52,3-2.55,1.94,0,2.33.88,2.31,2.28-.06,4.74-.07,9.48-.17,14.22a9.19,9.19,0,0,1-.64,2.25,12,12,0,0,1-2.49-1.23c-2.86-2.39-5.63-4.87-8.44-7.31C484.09,405.23,483.68,404.93,482.79,404.23Zm10.46,4.86-.48.12-12.3-10.33-.56.17c0,1,0,1.91,0,2.87,0,2.81,0,5.61,0,8.42a4,4,0,0,0,1.26,2.5,1.05,1.05,0,0,0,.42,0c-2.08-4.2-.55-8.5-1.08-12.7L481,400l12.26,10.32.52-.28v-12.3h-.49Z" transform="translate(-437.68 -305.76)"/><path class="cls-1" d="M445.09,394.94c1.71.46,3.45.85,5.12,1.42,1.48.51,1.68,1.53.87,2.69s-1.49,2-3.14,1.1a7.28,7.28,0,0,0-2.59-.89,6.21,6.21,0,0,0-2.13.63c.33.59.48,1.42,1,1.74,1.8,1.08,3.9,1.8,5.59,3,3.17,2.22,3.06,5.76.06,8.14-2.08,1.65-4.54,1.75-7.05,1.42a15.39,15.39,0,0,1-3.68-1.16c-1.54-.63-1.36-1.72-.64-2.78s1.31-1.84,2.94-1a9.34,9.34,0,0,0,3.35.84,1.29,1.29,0,0,0,1.08-2.26,3.58,3.58,0,0,0-1.26-1c-.84-.47-1.73-.89-2.61-1.31-3.48-1.66-4.86-3.59-4.17-5.94S440.88,394.86,445.09,394.94Zm-.23,9.81a31.21,31.21,0,0,1-3.34-2.45,2.73,2.73,0,0,1,1.23-4.63,6.89,6.89,0,0,1,5.71.54,3,3,0,0,0,.85.21c-2.06-1.28-4.1-2.58-6.74-1.31-1.61.78-2.59,1.87-2.42,3.56C440.41,403.18,442.9,403.75,444.87,404.75Zm2.23.88c.55.89,1.78,2,1.9,3.24.25,2.43-3.32,4-6.26,2.93-.78-.28-1.57-.52-2.35-.78a7,7,0,0,0,7.23.84c1.74-.69,1.94-2.1,2-3.41C449.74,406.71,448.06,406.12,447.1,405.63Z" transform="translate(-437.68 -305.76)"/><path class="cls-1" d="M535.25,404.73c1.53-2.88,2.89-5.4,4.2-7.94.65-1.25,4.32-2.14,5.44-1.22a1,1,0,0,1,.21,1c-2.59,5-5.22,10-7.85,15a9.05,9.05,0,0,1-.87,1.45,11.78,11.78,0,0,1-1.2,1.15c-.41-.36-1-.65-1.21-1.08-1.75-3.15-3.45-6.32-5.15-9.5-1.14-2.14-2.25-4.28-3.36-6.43-.72-1.41-.48-1.79,1.27-1.81,3.69,0,3.46-.18,4.65,2.39C532.44,400,533.82,402.17,535.25,404.73Zm8.12-7.92c-1,.57-2.15.9-2.54,1.58-1.65,2.93-3.05,6-4.57,9-.3.6-.7,1.16-1.28,2.1-2.11-4.1-4-7.79-5.93-11.46-.14-.28-.61-.42-1.12-.76L535,410.48a12.7,12.7,0,0,0,1.16-1.48c1.6-3,3.14-6.09,4.79-9.1.33-.61,1-1.5,1.56-1.5C544.11,398.41,543.47,397.67,543.38,396.81Z" transform="translate(-437.68 -305.76)"/><path class="cls-1" d="M453.88,413.94c.83-1.79,1.39-3.17,2.09-4.49q3.42-6.5,7-13a6.64,6.64,0,0,1,1.43-1.35c.47.4,1.11.74,1.37,1.23,2.18,4.08,4.28,8.18,6.41,12.28.63,1.2,1.31,2.37,1.94,3.57s.5,1.75-1.19,1.77c-1.95,0-3.78.13-4.45-2-.09-.3-.86-.58-1.34-.61-1.31-.08-2.63,0-3.94,0-1.75-.13-3.2,0-3.78,1.8a1.72,1.72,0,0,1-1.25.8C456.9,414,455.65,413.94,453.88,413.94Zm12.92-10.6-2.24-4.79-.53.06-.65,2.24-2.61,4.24L457,411.71l.48.22c.18-.2.51-.39.53-.6.18-1.63,1.35-1.85,2.92-1.78a51.42,51.42,0,0,0,5.82,0c2-.14,3.54.27,4.19,2.12a2.87,2.87,0,0,0,.63.08l-4.78-8.5Z" transform="translate(-437.68 -305.76)"/><path class="cls-1" d="M546.3,413.65c.47-1.13.85-2.26,1.4-3.32q3.72-7.11,7.55-14.17c.23-.43,1-1,1.29-1a2.51,2.51,0,0,1,1.39,1.17c2.07,3.88,4.06,7.79,6.09,11.69.73,1.4,1.53,2.77,2.27,4.16.58,1.09.44,1.73-1.23,1.76-2,0-3.78.1-4.44-2.05-.09-.29-.87-.56-1.34-.58-1.88-.07-3.76-.07-5.63,0a2,2,0,0,0-1.35.6C550.54,414.17,549.92,414.39,546.3,413.65ZM559,403.33l-2.23-4.77h-.47l-.72,2.27-1.48,2.26L549,412a4,4,0,0,0,.82-.19c.14-.1.32-.24.34-.37.21-1.79,1.55-2,3.22-1.88a40.28,40.28,0,0,0,5.06,0c2.25-.17,4.08.14,4.8,2.32a3.55,3.55,0,0,0,.59,0L559,403.26Z" transform="translate(-437.68 -305.76)"/><path class="cls-1" d="M511,403.44c0,1.81,0,3.63,0,5.44,0,2.91-1.27,4.6-4.55,5.11a13.9,13.9,0,0,1-5.21-.56c-.58-.14-1.39-1.61-1.19-1.81.8-.84,1.3-2.3,3.08-1.95,2.57.5,2.75.4,2.75-2,0-3.52.06-7,0-10.55,0-1.49.7-2,2.25-1.87s3.12-.35,2.93,1.87,0,4.17,0,6.26ZM509,397.63l-.66-.05a5.77,5.77,0,0,0-.24,1.19c0,3,.12,6,.11,9,0,3.58-1.57,4.65-5.45,3.81,2.06,1.23,5.22.61,5.44-1.29C508.73,406.11,508.8,401.87,509,397.63Z" transform="translate(-437.68 -305.76)"/><path class="cls-1" d="M599,404.79c0,2.53,0,5.06,0,7.59,0,1.15-.31,1.68-1.75,1.73-3.27.11-3.35.11-3.35-2.79,0-4.67.07-9.35,0-14,0-1.73.87-2,2.52-2,2.43.07,2.58.13,2.58,2C599,399.84,599,402.32,599,404.79Zm-2.73,6.77.35.06v-13.8h-.35Z" transform="translate(-437.68 -305.76)"/><path class="cls-1" d="M516.68,404.74c0-2.53.08-5.06,0-7.59-.06-1.4.56-1.92,2.07-1.81,1.36.09,3.06-.39,3,1.69q0,7.75,0,15.5c0,1.15-.54,1.53-1.78,1.58-3.26.14-3.34.11-3.34-2.78q0-3.3,0-6.6Zm2.3,6.89h.22v-13.9H519Z" transform="translate(-437.68 -305.76)"/><path class="cls-1" d="M559.59,425.59c-1.16.64-1.77,1.25-2.35,1.22A1.76,1.76,0,0,1,556,425.6c0-.43.79-1.18,1.26-1.21S558.42,425,559.59,425.59Z" transform="translate(-437.68 -305.76)"/><path class="cls-2" d="M522.71,344.33l1.6-1.12,1.1.73c.39-1.58,2-.83,3-1a33.33,33.33,0,0,1,5.39-.07c1.59,0,2.39.76,2.5,2.13.34,4.49.18,4.64-5,4.64-2.23,0-4.46,0-6.67-.08a7.28,7.28,0,0,1-2.08-.71,28.44,28.44,0,0,1,0,2.92,26.34,26.34,0,0,1-.59,2.84l.58-.09c0,2.28.11,4.55-.08,6.8,0,.55-1,1.36-1.63,1.49a17.88,17.88,0,0,1-4.64.29,2,2,0,0,1-2-2.22c.13-2.68.31-5.35.37-8a24.47,24.47,0,0,0-.38-3.28c-1.28.07-2.84.19-4.41.22-2.53,0-5.07,0-7.61,0a2.13,2.13,0,0,1-.56-.06c-1.1-.3-2-4-1.22-5.78.51-1.18,1.68-1.13,3-.94a31.33,31.33,0,0,0,4.24.12c1.44,0,2.89,0,4.33,0s2.53-.28,2.36-1.87a11.78,11.78,0,0,1,0-2.31c.07-.72.26-1.44.4-2.19-.15-.16-.62-.42-.63-.7-.06-1.53,0-3.07,0-4.6a1.7,1.7,0,0,1,1.83-1.87c1.61-.07,3.23-.23,4.83-.15,1.4.07,2.17,1.54,2.12,3.41-.09,3.31-.1,6.62-.18,9.93a3.39,3.39,0,0,1-.42,1.06Z" transform="translate(-437.68 -305.76)"/><path class="cls-2" d="M572.73,399.26l12.63,10.57V398.1h.52v12.3l-.46.25-12.25-10.34-.48.15c.57,4.2-1,8.5,1.12,12.63-.1,0-.23.16-.29.13a2.81,2.81,0,0,1-1.41-2.74c.08-2.69,0-5.39,0-8.08,0-1,0-1.93,0-2.9Z" transform="translate(-437.68 -305.76)"/><path class="cls-2" d="M493.25,409.09V397.73h.49V410l-.52.28L481,400l-.45.12c.54,4.2-1,8.5,1.08,12.7a1.05,1.05,0,0,1-.42,0,4,4,0,0,1-1.26-2.5c0-2.81,0-5.61,0-8.42,0-1,0-1.91,0-2.87l.56-.17,12.3,10.33Z" transform="translate(-437.68 -305.76)"/><path class="cls-2" d="M444.87,404.75c-2-1-4.46-1.57-4.71-4.08-.17-1.68.81-2.78,2.42-3.56,2.64-1.27,4.68,0,6.74,1.31a3,3,0,0,1-.85-.21,6.89,6.89,0,0,0-5.71-.54,2.73,2.73,0,0,0-1.23,4.63A31.21,31.21,0,0,0,444.87,404.75Z" transform="translate(-437.68 -305.76)"/><path class="cls-2" d="M447.1,405.63c1,.49,2.64,1.08,2.53,2.82-.08,1.32-.28,2.72-2,3.41a7,7,0,0,1-7.23-.84c.78.26,1.58.5,2.35.78,2.95,1,6.52-.5,6.26-2.93C448.87,407.65,447.65,406.51,447.1,405.63Z" transform="translate(-437.68 -305.76)"/><path class="cls-2" d="M543.38,396.81c.1.86.74,1.59-.85,1.58-.53,0-1.23.89-1.56,1.5-1.64,3-3.18,6.07-4.79,9.1a12.7,12.7,0,0,1-1.16,1.48l-7.07-13.24c.51.34,1,.49,1.12.76,1.93,3.67,3.82,7.37,5.93,11.46.57-.93,1-1.5,1.28-2.1,1.51-3,2.92-6,4.57-9C541.22,397.71,542.41,397.39,543.38,396.81Z" transform="translate(-437.68 -305.76)"/><path class="cls-1" d="M461.36,405.51l2.32-3.78.46-1.25.73.51,1.86,3,0-.07L469,409h-9Zm4.74,2-1.58-3.15-1.6,3Z" transform="translate(-437.68 -305.76)"/><path class="cls-2" d="M460.77,405.08,459.26,409h10.12l-2.63-5.77,4.78,8.5a2.87,2.87,0,0,1-.63-.08c-.65-1.85-2.16-2.26-4.19-2.12a51.42,51.42,0,0,1-5.82,0c-1.56-.07-2.74.15-2.92,1.78,0,.21-.35.4-.53.6l-.48-.22Z" transform="translate(-437.68 -305.76)"/><path class="cls-2" d="M466.8,403.33,464.71,400l-.82-.57-.52,1.4.65-2.24.53-.06Z" transform="translate(-437.68 -305.76)"/><path class="cls-1" d="M554.45,403.21l1.26-2.22,1-1,1.9,3.45,0-.07,2.27,5.66h-8.79l.88-2.13Zm3.58,4.18-1.52-3.47L555,407.2Z" transform="translate(-437.68 -305.76)"/><path class="cls-2" d="M554.1,403.1l-1.76,3.76-1,2.17h10.3L559,403.26l4.84,8.59a3.55,3.55,0,0,1-.59,0c-.72-2.18-2.55-2.49-4.8-2.32a40.28,40.28,0,0,1-5.06,0c-1.67-.08-3,.09-3.22,1.88,0,.14-.2.27-.34.37a4,4,0,0,1-.82.19Z" transform="translate(-437.68 -305.76)"/><path class="cls-2" d="M559,403.33l-2.23-3.52-1.2,1,.72-2.27h.47Z" transform="translate(-437.68 -305.76)"/><path class="cls-2" d="M509,397.63c-.24,4.23-.32,8.48-.8,12.7-.22,1.9-3.38,2.52-5.44,1.29,3.88.83,5.43-.23,5.45-3.81,0-3-.09-6-.11-9a5.77,5.77,0,0,1,.24-1.19Z" transform="translate(-437.68 -305.76)"/><path class="cls-2" d="M596.24,411.56V397.82h.35v13.8Z" transform="translate(-437.68 -305.76)"/><path class="cls-2" d="M519,411.63V397.75h.22v13.9Z" transform="translate(-437.68 -305.76)"/></svg>